<?xml version="1.0" encoding="UTF-8"?>
<svg version="1.1" xmlns="http://www.w3.org/2000/svg" width="115" height="117">
<path d="M0 0 C0.4021875 1.4540625 0.4021875 1.4540625 0.8125 2.9375 C1.20774567 4.29183831 1.6036433 5.64598643 2 7 C2.21785156 7.79148437 2.43570313 8.58296875 2.66015625 9.3984375 C3.01400391 10.59339844 3.01400391 10.59339844 3.375 11.8125 C3.58898437 12.56144531 3.80296875 13.31039063 4.0234375 14.08203125 C4.8710621 16.09673336 4.8710621 16.09673336 6.6796875 17.25390625 C9.77780305 18.25010165 12.50269272 18.18994615 15.75 18.125 C16.92046875 18.10695313 18.0909375 18.08890625 19.296875 18.0703125 C20.63492188 18.03550781 20.63492188 18.03550781 22 18 C22.38671875 18.75925781 22.7734375 19.51851562 23.171875 20.30078125 C23.69265625 21.29464844 24.2134375 22.28851562 24.75 23.3125 C25.26046875 24.29863281 25.7709375 25.28476562 26.296875 26.30078125 C27.79439418 29.05826626 27.79439418 29.05826626 30.11328125 30.484375 C32.79278577 32.63685482 32.84075 34.60804653 33.4375 37.9375 C34.48264144 42.73044245 34.48264144 42.73044245 37.375 46.625 C39.967367 48.04190785 39.967367 48.04190785 42.6875 49.0625 C45 50 45 50 47 53 C48.38364637 66.60585598 43.21842207 81.07410768 34.89453125 91.68359375 C23.4859913 104.89864949 10.16864224 111.78602009 -7.328125 113.28515625 C-22.23716484 113.69929625 -36.09155838 109.46291888 -47.375 99.5625 C-48.93591475 98.06142862 -50.47965191 96.5421452 -52 95 C-52.57492188 94.43539062 -53.14984375 93.87078125 -53.7421875 93.2890625 C-63.71736197 82.69366993 -67.52528432 68.13867884 -67.34936523 53.92944336 C-66.82877406 39.16406593 -60.87496374 26.01034362 -50.6328125 15.3515625 C-36.15356077 2.41905576 -19.1572028 -2.32751062 0 0 Z M-45.15625 23.75 C-53.60744141 34.06331833 -58.86962297 45.4824569 -58.31640625 59.02734375 C-56.93773489 71.98004632 -51.64170366 83.11559491 -42 92 C-30.82896735 100.40405379 -19.0469387 105.06986557 -5 104 C7.89316305 101.96876737 19.90626122 96.00427574 27.90625 85.49609375 C33.084942 77.78291478 38.10152167 68.57069001 37.7265625 58.9921875 C36.43577191 55.45292299 33.33168979 54.18507999 30.1953125 52.37109375 C26.97105067 50.35736438 26.13710503 48.61198067 25 45 C24.50679186 41.90511894 24.06360742 38.82261954 23.72265625 35.70703125 C23.2153402 32.94640802 23.2153402 32.94640802 21.32421875 31.22265625 C18.48463427 29.72889164 15.9047344 29.20062689 12.75 28.625 C5.44609677 27.0428975 0.42243173 24.93241736 -4.375 19.125 C-6.14275048 15.72547984 -7.10861677 12.71409678 -8 9 C-22.03830112 8.19009801 -35.57323815 13.38149538 -45.15625 23.75 Z " fill="#202020" transform="translate(67,4)"/>
<path d="M0 0 C3.50873987 2.67685553 3.80100834 5.64611345 4.578125 9.79296875 C4.97250241 12.10658229 4.97250241 12.10658229 5.875 14.6875 C6.07584754 18.40317955 4.30625042 20.20822318 2 23 C-0.98995138 25.49162615 -3.31686415 26.20760941 -7.125 26.375 C-11 26 -11 26 -12.9375 24.6875 C-16.06043924 19.72753768 -15.8489133 13.60990206 -15 8 C-11.59505838 1.17973584 -7.45750323 -1.36720892 0 0 Z " fill="#202020" transform="translate(33,42)"/>
<path d="M0 0 C1.73828125 1.35546875 1.73828125 1.35546875 3 3 C3.55311312 7.81998579 3.4600944 10.06277067 1.3125 14.4375 C-1.30818024 17.34149702 -2.1840152 17.75798327 -6 18 C-8.38671875 16.890625 -8.38671875 16.890625 -10.6875 15.25 C-11.45449219 14.71890625 -12.22148438 14.1878125 -13.01171875 13.640625 C-15 12 -15 12 -17 9 C-17.06849516 5.8492228 -16.73894563 3.88147223 -14.68359375 1.4296875 C-9.87244307 -2.65588361 -5.66735834 -2.5481146 0 0 Z " fill="#202020" transform="translate(75,72)"/>
<path d="M0 0 C5.12560001 2.91227273 9.56805936 8.04673128 11.75 13.5625 C11.375 16.8125 11.375 16.8125 10.75 19.5625 C3.54886654 20.22927162 -1.08453023 18.22813017 -7.25 14.5625 C-7.58 14.2325 -7.91 13.9025 -8.25 13.5625 C-8.19921875 11.63671875 -8.19921875 11.63671875 -7.9375 9.25 C-7.85886719 8.47011719 -7.78023438 7.69023438 -7.69921875 6.88671875 C-7.22281478 4.42184605 -6.61344595 2.67048981 -5.25 0.5625 C-2.25 -0.4375 -2.25 -0.4375 0 0 Z " fill="#202020" transform="translate(77.25,39.4375)"/>
<path d="M0 0 C1.60597325 0.45196245 3.20972508 0.91182327 4.8125 1.375 C6.15248047 1.75785156 6.15248047 1.75785156 7.51953125 2.1484375 C10 3 10 3 13 5 C14.23507888 9.94031552 14.10295343 13.35136611 12 18 C8.51732621 19.74133689 4.70113961 18.86930681 1 18 C-1.45243461 16.09936318 -2.62927427 14.74145145 -4 12 C-4.58608059 4.73260073 -4.58608059 4.73260073 -2 1.5 C-1.34 1.005 -0.68 0.51 0 0 Z " fill="#202020" transform="translate(35,75)"/>
<path d="M0 0 C2.50131185 1.81345109 3.57524391 3.15048783 4.9375 5.875 C5.03540845 9.20388739 3.74874051 11.22613574 2 14 C-0.60621315 16.14081795 -2.02218336 15.99959667 -5.4375 15.9375 C-9.78896106 14.79237867 -11.46555247 13.72246982 -14 10 C-14.43145862 6.1168724 -13.79815953 3.09746935 -11.5 -0.0625 C-7.5647766 -1.53820877 -4.01582459 -1.09254051 0 0 Z " fill="#202020" transform="translate(58,41)"/>
<path d="M0 0 C5.56818182 0.56818182 5.56818182 0.56818182 7 2 C7.1875 4.9375 7.1875 4.9375 7 8 C5 10 5 10 2.5625 10.3125 C0 10 0 10 -1.875 8.8125 C-3 7 -3 7 -2.8125 4.4375 C-2 2 -2 2 0 0 Z " fill="#202020" transform="translate(91,0)"/>
<path d="M0 0 C2.375 0.6875 2.375 0.6875 3.375 1.6875 C3.5625 4.625 3.5625 4.625 3.375 7.6875 C1.375 9.6875 1.375 9.6875 -1.125 9.9375 C-3.625 9.6875 -3.625 9.6875 -5.625 7.6875 C-5.9375 4.6875 -5.9375 4.6875 -5.625 1.6875 C-2.625 -0.3125 -2.625 -0.3125 0 0 Z " fill="#202020" transform="translate(105.625,14.3125)"/>
<path d="M0 0 C2.475 0.99 2.475 0.99 5 2 C4.67 3.32 4.34 4.64 4 6 C2.35 5.67 0.7 5.34 -1 5 C-0.67 3.35 -0.34 1.7 0 0 Z " fill="#202020" transform="translate(110,42)"/>
</svg>
