<?xml version="1.0" encoding="UTF-8"?>
<svg version="1.1" xmlns="http://www.w3.org/2000/svg" width="200" height="200">
<path d="M0 0 C66 0 132 0 200 0 C200 66 200 132 200 200 C134 200 68 200 0 200 C0 134 0 68 0 0 Z " fill="#FEFEFE" transform="translate(0,0)"/>
<path d="M0 0 C3.11114702 3.11114702 2.8076521 6.89997747 3.33984375 11.15234375 C3.83225543 13.92699167 3.83225543 13.92699167 5.0859375 15.8359375 C8.08881416 17.66217678 11.26539929 17.57566664 14.6875 17.6875 C15.7403418 17.73874023 15.7403418 17.73874023 16.81445312 17.79101562 C18.54241387 17.87329947 20.27118072 17.9383324 22 18 C22.34611328 18.90492187 22.34611328 18.90492187 22.69921875 19.828125 C24.71835452 25.04777086 24.71835452 25.04777086 28.625 28.875 C31.54783492 31.49016808 31.46836441 32.69830402 32 36.5 C32.59461105 40.94014446 32.59461105 40.94014446 35.25 44.5 C38.13329709 46.0727075 41.05939791 47.53782216 44 49 C44.98734665 63.23973279 42.07199169 75.67624904 33 87 C32.17435547 88.11955078 32.17435547 88.11955078 31.33203125 89.26171875 C23.97680383 98.49888069 11.76585027 105.59260164 0 107 C-16.87698321 107.99091327 -28.95039311 105.51373268 -43.125 95.875 C-52.27385957 87.5747303 -60.24583663 75.0045976 -61.19287109 62.44140625 C-61.89788375 37.24895406 -61.89788375 37.24895406 -56 28 C-55.20335937 26.69095703 -55.20335937 26.69095703 -54.390625 25.35546875 C-46.49595136 13.27806665 -35.52510547 3.83389073 -21.21484375 0.4296875 C-14.20678583 -0.50699096 -7.0425753 -0.56546225 0 0 Z " fill="#FAFAFA" transform="translate(108,48)"/>
<path d="M0 0 C3.11114702 3.11114702 2.8076521 6.89997747 3.33984375 11.15234375 C3.83225543 13.92699167 3.83225543 13.92699167 5.0859375 15.8359375 C8.08881416 17.66217678 11.26539929 17.57566664 14.6875 17.6875 C15.7403418 17.73874023 15.7403418 17.73874023 16.81445312 17.79101562 C18.54241387 17.87329947 20.27118072 17.9383324 22 18 C22.34611328 18.90492187 22.34611328 18.90492187 22.69921875 19.828125 C24.71835452 25.04777086 24.71835452 25.04777086 28.625 28.875 C31.54783492 31.49016808 31.46836441 32.69830402 32 36.5 C32.59461105 40.94014446 32.59461105 40.94014446 35.25 44.5 C38.13329709 46.0727075 41.05939791 47.53782216 44 49 C44.98734665 63.23973279 42.07199169 75.67624904 33 87 C32.17435547 88.11955078 32.17435547 88.11955078 31.33203125 89.26171875 C23.97680383 98.49888069 11.76585027 105.59260164 0 107 C-16.87698321 107.99091327 -28.95039311 105.51373268 -43.125 95.875 C-52.27385957 87.5747303 -60.24583663 75.0045976 -61.19287109 62.44140625 C-61.89788375 37.24895406 -61.89788375 37.24895406 -56 28 C-55.20335937 26.69095703 -55.20335937 26.69095703 -54.390625 25.35546875 C-46.49595136 13.27806665 -35.52510547 3.83389073 -21.21484375 0.4296875 C-14.20678583 -0.50699096 -7.0425753 -0.56546225 0 0 Z M-44.375 24.8125 C-53.06507008 36.37546798 -55.25734977 48.02425877 -53.76171875 62.26953125 C-51.28923584 74.13245428 -43.84158823 85.1984166 -34 92.10546875 C-25.82184082 97.06347775 -18.65242583 99.38279087 -9.125 99.3125 C-7.92810547 99.30404053 -7.92810547 99.30404053 -6.70703125 99.29541016 C4.38933866 99.06612755 13.40525609 94.95897755 21.75 87.5625 C22.4925 86.716875 23.235 85.87125 24 85 C24.47953125 84.51144531 24.9590625 84.02289063 25.453125 83.51953125 C32.05519454 76.50066439 36.57025874 66.69259875 36.48046875 56.94140625 C35.70178105 53.79500146 33.53718875 52.94245703 30.88671875 51.32421875 C27.49664638 48.94485119 25.54292835 45.80457118 24 42 C23.6484375 39.40234375 23.6484375 39.40234375 23.5 36.75 C23.25659545 32.86203108 23.25659545 32.86203108 21.1875 29.5625 C17.1931916 27.60450569 13.20006481 26.70130337 8.87890625 25.69921875 C3.62251134 24.42256381 0.87164191 23.29501084 -2.1875 18.75 C-3.97318181 15.24587964 -5.51429141 11.63998605 -7 8 C-22.14865291 6.97297268 -34.65177591 13.38089635 -44.375 24.8125 Z " fill="#2B2B2A" transform="translate(108,48)"/>
<path d="M0 0 C4.78694581 1.74907635 4.78694581 1.74907635 6.25 4.1875 C6.875 7.5625 6.875 7.5625 7.25 11.1875 C7.518125 12.033125 7.78625 12.87875 8.0625 13.75 C8.35858845 17.59914984 6.68530358 19.31509065 4.25 22.1875 C0.13387383 24.87193011 -2.868794 25.53615757 -7.75 25.1875 C-10.65689722 19.61594699 -12.1047823 14.46433312 -10.75 8.1875 C-8.10924805 3.29548754 -5.70036995 0.2850185 0 0 Z " fill="#282828" transform="translate(73.75,83.8125)"/>
<path d="M0 0 C2.875 1.0625 2.875 1.0625 5 3 C6.1026862 6.3729225 6.55773852 8.67020677 5.15625 12.01171875 C4.1845099 13.72267542 3.09913075 15.36795737 2 17 C-3.2953712 17.50432107 -5.86704506 16.28757779 -10 13 C-12.18038095 9.72942857 -12.63246755 8.79480531 -12 5 C-8.46143186 0.1746798 -5.89807415 -0.84258202 0 0 Z " fill="#292A29" transform="translate(113,112)"/>
<path d="M0 0 C3.02047196 1.10425857 4.21101354 2.32688403 6.23046875 4.8046875 C6.81183594 5.50335938 7.39320312 6.20203125 7.9921875 6.921875 C10.75753389 10.50219754 11.90099939 12.3946327 11.54296875 16.9296875 C10.54296875 17.9296875 10.54296875 17.9296875 7.04296875 18.3046875 C1.73246168 18.28544653 -2.10772013 15.74868545 -6.45703125 12.9296875 C-6.36969549 11.32451653 -6.26150901 9.72047088 -6.14453125 8.1171875 C-6.08652344 7.22386719 -6.02851562 6.33054687 -5.96875 5.41015625 C-5.45703125 2.9296875 -5.45703125 2.9296875 -4.2265625 1.04296875 C-2.45703125 -0.0703125 -2.45703125 -0.0703125 0 0 Z " fill="#2D2D2C" transform="translate(117.45703125,82.0703125)"/>
<path d="M0 0 C4.44826036 0.40438731 7.59959062 2.13054137 11.4375 4.3125 C11.49145478 5.93713842 11.53027195 7.56228541 11.5625 9.1875 C11.58570312 10.09242187 11.60890625 10.99734375 11.6328125 11.9296875 C11.4375 14.3125 11.4375 14.3125 9.4375 16.3125 C6.3774427 16.87370742 3.50339767 16.81894491 0.4375 16.3125 C-2.125 14.4375 -2.125 14.4375 -3.5625 11.3125 C-3.91703273 7.94443903 -3.94282384 4.6793012 -3.5625 1.3125 C-2.5625 0.3125 -2.5625 0.3125 0 0 Z " fill="#292A29" transform="translate(79.5625,116.6875)"/>
<path d="M0 0 C4.61639122 -0.61551883 7.69859863 -0.67933165 11.5625 2.0625 C14 5 14 5 14.125 8.625 C13 12 13 12 11.3125 13.9375 C8.2135552 15.3613395 6.37817188 15.55153827 3 15 C0.125 12.9375 0.125 12.9375 -2 10 C-2.53603554 5.55856266 -2.50031654 3.75047482 0 0 Z " fill="#2D2D2C" transform="translate(90,83)"/>
<path d="M0 0 C1.9375 0.75 1.9375 0.75 3.9375 2.75 C3.38194444 7.30555556 3.38194444 7.30555556 1.9375 8.75 C-0.5 8.9375 -0.5 8.9375 -3.0625 8.75 C-5.0625 6.75 -5.0625 6.75 -5.375 4.25 C-5.271875 3.425 -5.16875 2.6 -5.0625 1.75 C-2.0625 -0.25 -2.0625 -0.25 0 0 Z " fill="#363635" transform="translate(134.0625,44.25)"/>
<path d="M0 0 C4.55555556 0.55555556 4.55555556 0.55555556 6 2 C6.1875 4.4375 6.1875 4.4375 6 7 C5.34 7.66 4.68 8.32 4 9 C-0.55555556 8.44444444 -0.55555556 8.44444444 -2 7 C-2.1875 4.5625 -2.1875 4.5625 -2 2 C-1.34 1.34 -0.68 0.68 0 0 Z " fill="#373837" transform="translate(142,58)"/>
<path d="M0 0 C-0.721875 0.556875 -1.44375 1.11375 -2.1875 1.6875 C-3.115625 2.450625 -4.04375 3.21375 -5 4 C-5.9075 4.721875 -6.815 5.44375 -7.75 6.1875 C-10.78515416 9.9814427 -10.88629493 13.25539758 -11 18 C-11.33 18 -11.66 18 -12 18 C-12.58321468 13.48240057 -12.91345671 9.61532175 -10.6171875 5.5546875 C-7.23622058 1.471182 -5.52386347 -0.51517898 0 0 Z " fill="#4D4C4B" transform="translate(75,84)"/>
<path d="M0 0 C1.98 0.495 1.98 0.495 4 1 C3.67 2.32 3.34 3.64 3 5 C1.68 4.67 0.36 4.34 -1 4 C-0.67 2.68 -0.34 1.36 0 0 Z " fill="#4A4948" transform="translate(149,85)"/>
</svg>
